<?xml version="1.0" encoding="iso-8859-1"?>
<!-- Generator: Adobe Illustrator 19.0.0, SVG Export Plug-In . SVG Version: 6.00 Build 0)  -->
<svg version="1.1" id="Capa_1" xmlns="http://www.w3.org/2000/svg" xmlns:xlink="http://www.w3.org/1999/xlink" x="0px" y="0px"
	 viewBox="0 0 512 512" style="enable-background:new 0 0 512 512;" xml:space="preserve">
<path style="fill:#FFAB4D;" d="M355.753,210.7v-61c0-39.6-60-39.901-60,0v-120c0-19.799-15-29.7-30-29.7c-15,0-30,9.901-30,29.7v120
	c0-39.6-60-39.901-60,0v30c0-39.6-60-39.901-60,0c0,42.599,0,19.501,0,110.4c0,6.601,0.901,12.9,2.999,18.9l17.401,52.2
	c5.7,17.1,21.601,28.5,39.6,28.5V512h150V389.7V265C325.753,265,361.421,216.172,355.753,210.7z"/>
<path style="fill:#FFC380;" d="M325.753,239.7L325.753,239.7c-16.569,0-30-13.431-30-30v-60c0-16.569,13.431-30,30-30l0,0
	c16.569,0,30,13.431,30,30v60C355.753,226.269,342.321,239.7,325.753,239.7z"/>
<path style="fill:#FFD499;" d="M325.753,239.7h-30c-33.137,0-60,26.863-60,60c0,0,0,154.269,0,212.3c41.764,0,90,0,90,0V389.7
	c17.757,0,33.363-11.772,38.242-28.846l29.906-104.671c10.951-38.329-17.829-76.483-57.691-76.483c0,0-4.479,0-10.456,0h-60
	c-16.569,0-30,13.431-30,30s13.431,30,30,30L325.753,239.7"/>
<g>
	<path style="fill:#FFC380;" d="M205.753,239.7L205.753,239.7c-16.569,0-30-13.431-30-30v-60c0-16.569,13.431-30,30-30l0,0
		c16.569,0,30,13.431,30,30v60C235.753,226.269,222.322,239.7,205.753,239.7z"/>
	<path style="fill:#FFC380;" d="M145.753,269.7L145.753,269.7c-16.569,0-30-13.431-30-30v-60c0-16.569,13.431-30,30-30l0,0
		c16.569,0,30,13.431,30,30v60C175.753,256.269,162.322,269.7,145.753,269.7z"/>
</g>
<g>
</g>
<g>
</g>
<g>
</g>
<g>
</g>
<g>
</g>
<g>
</g>
<g>
</g>
<g>
</g>
<g>
</g>
<g>
</g>
<g>
</g>
<g>
</g>
<g>
</g>
<g>
</g>
<g>
</g>
</svg>
